<svg xmlns="http://www.w3.org/2000/svg" height="800" width="1200" version="1.0" viewBox="-18.611445 -12.10395 161.29919 72.6237"><path d="M.1075 11.4558h123.9687v35.99H.1075z" fill="#0d1b3c"/><path d="M.1075 48.4158h123.9687v-1.8125H.1075zm0-36.1188h123.9687v-1.8012H.1075z" fill="#b09246"/><path d="M2.0325 44.677h120.1237V14.2245H2.0325z" fill="none" stroke="#b09246" stroke-width=".34"/><path d="M22.8012 35.0458h-4.86l-.0725.5975c-.0262.2-.29 1.9487-1.9012 1.9487-1.5038 0-2.265-2.4937-2.265-7.4125 0-5.1162.7837-7.6025 2.3975-7.6025 1.6712 0 1.9262 1.1138 2.2062 2.9275l.1313.8438h4.005l-.1263-8.0163-2.0912-.0987-.2288.2437c-.0087.0075-.215.2213-.685.2963-.3887.0625-.6112-.045-.8462-.1588l-.2613-.1125-.0862-.035c-.3513-.135-1.08-.4187-2.495-.4187-1.24 0-7.4213.5787-7.4213 12.0237 0 10.2563 4.2675 12.41 7.845 12.41 4.2663 0 6.615-3.3875 6.73-6.7337l.025-.7025"/><path d="M39.58 37.4458c-.4163-1.2075-3.8488-14.2563-3.8863-14.3938-.0075-.0237-.2962-1.09.3425-1.4737l.445-.2663-.7-2.4537h-8.2537l-.7063 2.48.48.2562c.6225.335.3213 1.4338.3175 1.4438-.04.1512-3.565 13.2875-3.9275 14.5162-.3175 1.0775-.99 1.095-1.31 1.0775l.55 2.8413h6.11l.7063-2.4763-.5075-.2737c-.0538-.0288-.2825-.1763-.2825-.6113 0-.095.0125-.2062.0387-.3337 0 0 .46-2.0338.63-2.7788h4.06c.1675.745.6275 2.7788.6275 2.7788.0263.1275.0375.2387.0375.3337 0 .435-.2262.5825-.2812.6113l-.4813.26.125.5362.5563 1.9538h6.1087l.58-2.7538c-.2825-.035-.9725-.0875-1.3787-1.2737zm-8.93-6.9375c.185-.8063.545-2.37 1.005-4.3825.4612 2.0125.8187 3.5762 1.0025 4.3825H30.65m84.6975 6.465V23.1958l-.01-.0638c-.0313-.1975-.1538-1.1975.8587-1.45l.675-.1687-.7525-2.6813H109.52l-.755 2.6813.6812.1687c1.0088.2525.885 1.2525.855 1.45l-.0075.0575-.0025.065v13.7188c0 1.3875-.5587 1.6762-.5625 1.6812l-.5087.25.11.5625.5687 1.98h5.8375l.725-2.5225-.5537-.27c-.0025-.005-.56-.2937-.56-1.6812m-55.02-15.2913l.6787-.1687-.755-2.6813h-6.0875s-2.3787 4.4838-3.2162 6.0563c-.8325-1.5725-3.2125-6.0563-3.2125-6.0563h-6.09l-.7525 2.6813.6787.1687c1.045.2625.9975 1.2925.9763 1.4963l-.0038.035v13.76c0 1.3837-.6737 1.6525-.7025 1.6625l-.5862.2212.1462.61.565 1.98h6.0063l.7212-2.5262-.5525-.2688c-.005-.0025-.565-.2912-.565-1.6787v-8.6688a56391.604 56391.604 0 013.3713 5.7575s2.1762-3.715 3.3737-5.7562v8.6675c0 1.3875-.5587 1.6762-.5662 1.6787l-.5075.2525.1125.5625.5662 1.98H59.93l.74-2.58-.6113-.2312c-.0275-.01-.7025-.2788-.7025-1.6625v-13.755l-.005-.04c-.0187-.2038-.0725-1.2338.9763-1.4963m7.3862 15.2913V32.732h.8225c5.2425 0 7.785-2.2675 7.785-6.9375 0-4.3425-2.9125-6.9362-7.785-6.9362h.0013l-6.7538-.0288-.1425.4975-.6087 2.1863.6737.1687c1.0513.2625 1.0013 1.2925.9763 1.4963l-.0013.035v13.76c0 1.3837-.67 1.6525-.7037 1.6625l-.5863.2212.1438.61.5712 1.98h6.0063l.7175-2.5262-.5538-.2688c-.0037-.0025-.5625-.2912-.5625-1.6787zm0-13.4675h.3788c1.3087 0 2.8737.4 2.8737 2.2937 0 1.63-.8337 2.295-2.8737 2.295h-.3788v-4.5887m39.0388 13.3775s-1.75-4.515-2.11-5.4463c1.91-1.0612 2.8825-3.0037 2.8825-5.8012 0-4.245-2.8088-6.7775-7.5038-6.7775l-7.13-.0288-.1462.4975-.6125 2.1863.68.1687c1.0475.2625.9962 1.2925.9737 1.4963l-.0012.035v13.76c0 1.3837-.6738 1.6525-.7013 1.6625l-.5875.2212.1438.61.5675 1.98h6.0075l.72-2.5262-.5538-.2688c-.0062-.0025-.5662-.2912-.5662-1.6787V32.412h.5137c.3125.7588 3.7588 9.035 3.7588 9.035h5.46l.56-2.4925-.6825-.1537c-.0413-.0075-1.02-.2475-1.6725-1.9175zm-7.1563-9.0263h-.7812v-4.4325h.7812c1.2438 0 2.7325.3838 2.7325 2.2138 0 1.5975-.7675 2.2187-2.7325 2.2187m-8.535 9.5888c-.4137-1.2075-3.85-14.2563-3.8812-14.3938-.01-.0237-.3-1.09.34-1.4737l.4437-.2663-.7-2.4537h-8.2525l-.705 2.48.4788.2562c.6237.335.32 1.4338.3162 1.4438-.0375.1512-3.565 13.2875-3.925 14.5162-.32 1.0775-.99 1.095-1.31 1.0775l.5475 2.8413H80.52l.7112-2.4763-.51-.2737c-.0537-.0288-.2825-.1763-.2825-.6113 0-.095.0138-.2062.04-.3337 0 0 .4625-2.0338.63-2.7788h4.06c.1663.745.6275 2.7788.6275 2.7788.0288.1275.0388.2387.0388.3337 0 .435-.2263.5825-.2825.6113l-.48.26.1262.5362.5575 1.9538h6.1075l.58-2.7538c-.285-.035-.9725-.0875-1.3825-1.2737zm-8.9275-6.9375c.1875-.8063.545-2.37 1.005-4.3825.46 2.0125.82 3.5762 1.005 4.3825h-2.01"/><path d="M119.2237 39.6895c-.065-.3275-.4025-.3725-.6812-.3725h-.6225v1.6563h.3112v-.7063h.31l.34.7063h.3475l-.3725-.7513c.2588-.045.4175-.275.3675-.5325zm-.73.38h-.2625v-.5462h.2513c.1987 0 .4125.02.4312.26.0213.2612-.2237.2862-.42.2862" fill="#b09246"/><path d="M118.505 38.7108c-.7963-.02-1.455.6825-1.4575 1.4625-.0038.8087.6962 1.485 1.5025 1.4575.8025-.0275 1.4437-.7013 1.4125-1.5075-.03-.7825-.665-1.4175-1.4575-1.4125zm-.0113 2.725c-.685-.0063-1.2575-.58-1.255-1.2625 0-.6775.5763-1.2888 1.2663-1.2688.7125-.0025 1.27.5738 1.27 1.28-.0063.6913-.5925 1.2613-1.2813 1.2513m-96.33-7.31h-4.8575l-.0762.6c-.0263.1987-.2875 1.9475-1.9 1.9475-1.5038 0-2.2663-2.4938-2.2663-7.4138 0-5.115.785-7.5987 2.4-7.5987 1.6688 0 1.925 1.1087 2.2063 2.9237l.1312.845.58-.0012h3.425l-.1275-8.0175-2.0887-.0963-.23.2425c-.0088.0088-.2163.2225-.6863.2963-.3887.0612-.6125-.045-.8462-.1575l-.2613-.115-.0875-.0338c-.35-.135-1.0787-.4175-2.4925-.4175-1.2387 0-7.4212.5788-7.4212 12.0238 0 10.255 4.2662 12.4087 7.845 12.4087 4.265 0 6.6137-3.3875 6.73-6.7325l.0237-.7037" fill="#b09246"/><path d="M38.9412 36.5258c-.4137-1.2088-3.8475-14.2575-3.8837-14.3938-.0063-.0237-.2975-1.09.34-1.4725l.4475-.2675-.7-2.4562h-8.2538l-.7075 2.48.48.2587c.6225.335.3213 1.4338.3175 1.4425-.0387.1513-3.565 13.2888-3.9262 14.5138-.32 1.0812-.99 1.0987-1.31 1.0812l.5487 2.8425h6.1088l.7075-2.4787-.5075-.2725c-.055-.03-.2813-.1775-.2813-.61 0-.0975.01-.2075.0388-.3363 0 0 .46-2.0337.6287-2.7775h4.0588c.17.7438.6287 2.7775.6287 2.7775.0275.1288.04.24.04.3363 0 .4325-.23.58-.2837.61l-.4813.26.125.5375.5575 1.9537h6.1075l.58-2.755c-.2837-.035-.9712-.0875-1.38-1.2737zm-8.9275-6.9375c.1838-.8075.5425-2.37 1.005-4.3813.46 2.0113.8188 3.5738 1.0038 4.3813h-2.0088m85.5425-8.825l.6788-.1688-.7525-2.6837h-6.5975l-.7525 2.6837.6775.1688c1.0062.2525.89 1.2512.8575 1.4475l-.0138.0587v13.7813c0 1.39-.555 1.68-.5612 1.685l-.51.2487.115.5638.5687 1.9787H115.1l.7225-2.5237-.55-.2675c-.0038-.005-.56-.295-.56-1.685v-13.775l-.015-.065c-.0313-.1963-.1475-1.195.8587-1.4475m-55.8687 0l.68-.1688-.7525-2.6837h-6.09s-2.3775 4.485-3.2113 6.0575a12881.55 12881.55 0 01-3.2162-6.0575h-6.0888l-.7537 2.6837.6787.1688c1.0463.2612.9963 1.2912.975 1.495l-.0025.035-.0012 13.7575c0 1.3862-.6713 1.655-.7013 1.6675l-.5875.22.1463.61.5662 1.9787h6.0063l.7212-2.5275-.5525-.265c-.005-.0037-.565-.2937-.565-1.6837v-8.665l3.375 5.7562s2.175-3.7137 3.3725-5.7537v8.6625c0 1.39-.5625 1.68-.5675 1.6837l-.5125.2475.1188.5663.5675 1.9787h6.0012l.7375-2.58-.61-.2287c-.03-.0125-.7025-.2813-.7025-1.6675V22.2995l-.005-.0412c-.0212-.2038-.0712-1.2338.9738-1.495m7.3912 15.2875V31.812h.82c5.2413 0 7.7875-2.2675 7.7875-6.935 0-4.345-2.91-6.9387-7.7875-6.9387h.0025l-6.7537-.0288-.1375.4975-.6138 2.1875.6763.1688c1.0475.2612.995 1.2912.9787 1.495l-.0075.035v13.7575c0 1.3862-.675 1.655-.7012 1.6675l-.5863.22.1463.61.565 1.9787h6.0062l.7188-2.5275-.55-.265c-.0075-.0037-.5638-.2937-.5638-1.6837zm0-13.4613h.3775c1.31 0 2.8713.395 2.8713 2.29 0 1.63-.8325 2.295-2.8713 2.295h-.3775v-4.585m39.0375 13.3738s-1.7525-4.515-2.1087-5.445c1.9062-1.0625 2.885-3.005 2.885-5.8025 0-4.2438-2.8063-6.7775-7.5088-6.7775l-7.1362-.0288-.1363.4975-.6175 2.1875.685.1688c1.0413.2612.9938 1.2912.9725 1.495l-.005.035v13.7575c0 1.3862-.6737 1.655-.7025 1.6675l-.58.22.1413.61.5662 1.9787h6.0013l.7262-2.5275-.555-.265c-.005-.0037-.5637-.2937-.5637-1.6837V31.492h.5125c.315.7613 3.7612 9.035 3.7612 9.035h5.4525l.5625-2.4925-.6762-.1525c-.0438-.01-1.0238-.2487-1.6763-1.9187zm-7.1537-9.0263H98.18v-4.4325h.7825c1.2437 0 2.7275.3838 2.7275 2.215 0 1.5963-.765 2.2175-2.7275 2.2175m-8.5375 9.5888c-.4163-1.2088-3.8463-14.2575-3.885-14.3938-.0038-.0237-.2963-1.09.34-1.4725l.4487-.2675-.7012-2.4562H78.375l-.7088 2.48.4838.2587c.6237.335.3187 1.4338.3162 1.4425-.0412.1513-3.5662 13.2888-3.9275 14.5138-.3225 1.0812-.99 1.0987-1.31 1.0812l.55 2.8425h6.105l.7125-2.4787-.5112-.2725c-.055-.03-.28-.1775-.28-.61 0-.0975.0087-.2075.035-.3363 0 0 .46-2.0337.63-2.7775h4.06c.1737.7438.63 2.7775.63 2.7775.0262.1288.04.24.04.3363 0 .4325-.23.58-.2863.61l-.48.26.1263.5375.5587 1.9537h6.1075l.58-2.755c-.2862-.035-.9725-.0875-1.3812-1.2737zm-8.9263-6.9375c.1825-.8075.54-2.37 1.0038-4.3813a2251.944 2251.944 0 001.0025 4.3813h-2.0063" fill="#b09246"/><path d="M15.33 37.352c-2.2825 0-2.945-3.4487-2.945-8.0925 0-4.6462.61-8.2787 3.0787-8.2787 2.4675 0 2.6538 2.095 2.9175 3.7662h2.7338l-.105-6.6862-1.1425-.0525s-.3313.3975-1.0863.5162c-.7587.1188-1.155-.1987-1.4475-.305-.2912-.105-.915-.4125-2.3475-.4125-1.435 0-6.7425.89-6.7425 11.3463 0 10.4537 4.46 11.7287 7.1663 11.7287 3.8487 0 5.945-3 6.0512-6.0762h-3.5575s-.2912 2.5462-2.5737 2.5462m23.0862-.1587c-.4112-1.2475-4.015-14.8888-4.015-14.8888s-.4587-1.5637.6463-2.2275l-.415-1.4587h-7.23l-.4163 1.4587c1.1263.605.65 2.2275.65 2.2275s-3.605 13.6413-4.0162 14.8888c-.41 1.2487-1.0963 1.115-1.0963 1.115l.3238 1.5662h5.0412l.4175-1.4612s-.8912-.3963-.61-1.6975c.0725-.3475.3638-1.6263.7488-3.3163h5.145c.3862 1.69.675 2.9688.7512 3.3163.2788 1.3012-.6125 1.6975-.6125 1.6975l.4163 1.4612h5.0437l.3225-1.5662s-.6862.1337-1.095-1.115zm-9.255-6.925a5343.8554 5343.8554 0 011.8575-8.1013c.3913 1.7125 1.1575 5.045 1.8563 8.1013h-3.7138M89.9 37.1933c-.4113-1.2475-4.015-14.8888-4.015-14.8888s-.4588-1.5637.645-2.2275l-.415-1.4587h-7.2275l-.4163 1.4587c1.1225.605.6475 2.2275.6475 2.2275s-3.6062 13.6413-4.0125 14.8888c-.4137 1.2487-1.0975 1.115-1.0975 1.115l.3238 1.5662h5.04l.4175-1.4612s-.8875-.3963-.6113-1.6975c.0738-.3475.365-1.6263.75-3.3163h5.1438c.39 1.69.68 2.9688.7525 3.3163.2787 1.3012-.61 1.6975-.61 1.6975l.4175 1.4612h5.0387l.325-1.5662s-.685.1337-1.0962-1.115zm-9.2575-6.925c.7-3.0563 1.4675-6.3888 1.86-8.1013.39 1.7125 1.1587 5.045 1.8562 8.1013h-3.7162m33.3887 5.7825V22.3333s-.3362-1.805 1.36-2.2313l-.4237-1.5125h-5.57l-.4238 1.5125c1.7.4263 1.3575 2.2313 1.3575 2.2313v13.7175c0 1.9662-.9787 2.31-.9787 2.31l.4212 1.4875h4.815l.425-1.4875s-.9825-.3438-.9825-2.31M59.525 20.102l-.4225-1.5125h-5.1663l-3.6225 6.83-3.625-6.83h-5.165L41.1 20.102c1.6975.4263 1.4862 2.2313 1.4862 2.2313v13.7175c0 1.9662-1.1687 2.31-1.1687 2.31l.4262 1.4875h4.98l.4238-1.4875s-.9875-.3438-.9875-2.31V24.8833l4.0537 6.915 4.0525-6.915v11.1675c0 1.9662-.9887 2.31-.9887 2.31l.425 1.4875h4.98l.4225-1.4875s-1.165-.3438-1.165-2.31V22.3333s-.215-1.805 1.485-2.2313m8.3737-1.4825l-6.2362-.03-.4275 1.5125c1.7012.4263 1.49 2.2313 1.49 2.2313v13.7175c0 1.9662-1.17 2.31-1.17 2.31l.4225 1.4875h4.9837l.4213-1.4875s-.9838-.3438-.9838-2.31V31.132h1.5c3.9263 0 7.1113-1.2425 7.1113-6.255 0-4.44-3.185-6.2575-7.1113-6.2575zm-.4425 9.2325h-1.0575v-5.9437h1.0575c1.9575 0 3.5538.8625 3.5538 2.9712 0 2.3825-1.5963 2.9725-3.5538 2.9725m38.025 8.36c-.6187-1.57-1.7812-4.5962-2.33-6.0187 1.8425-.775 3.0613-2.395 3.0613-5.4775 0-4.3275-3.0613-6.0963-6.8288-6.0963l-6.6175-.03-.425 1.5125c1.6988.4263 1.485 2.2313 1.485 2.2313v13.7175c0 1.9662-1.1662 2.31-1.1662 2.31l.4262 1.4875h4.9788l.4237-1.4875s-.99-.3438-.99-2.31v-5.2375h1.645l3.765 9.035h4.4588l.29-1.3013s-1.3538-.2387-2.1763-2.335zm-6.5187-8.5975h-1.4638v-5.79h1.4638c1.8775 0 3.405.8413 3.405 2.895 0 2.32-1.5275 2.895-3.405 2.895" fill="#fff"/><path d="M46.7774 3.4925v-.6551l2.3652-.0038v2.072c-.3631.2894-.7376.5071-1.1236.6531-.3859.146-.782.219-1.1882.219-.5485 0-1.0468-.1175-1.495-.3523-.448-.2349-.7864-.5745-1.0149-1.0188-.2285-.4443-.3428-.9407-.3428-1.4892 0-.5433.1136-1.0505.3409-1.5215.2272-.471.5541-.8207.9807-1.0493.4266-.2285.9179-.3427 1.474-.3427.4036 0 .7686.0653 1.0949.1961.3263.1308.582.313.7674.5465.1854.2336.3263.5383.4228.9141l-.6665.1828c-.0838-.2844-.188-.5078-.3123-.6703-.1244-.1625-.3022-.2926-.5332-.3904-.231-.0977-.4875-.1466-.7694-.1466-.3377 0-.6297.0514-.876.1542-.2462.103-.445.238-.596.4057a1.9341 1.9341 0 00-.3523.5522c-.1422.3453-.2133.7198-.2133 1.1235 0 .4977.0858.9141.2571 1.2493.1714.3351.4209.584.7484.7464a2.317 2.317 0 001.0436.2438c.3199 0 .6322-.0616.9369-.1847.3047-.1232.5357-.2546.6931-.3942V3.4925zm3.8104 2.19V.099h2.4756c.4976 0 .876.0501 1.135.1505.259.1002.4659.2774.6207.5313.155.2539.2324.5344.2324.8417 0 .396-.1283.73-.3847 1.0016-.2565.2717-.6525.4444-1.1883.518.1955.094.344.1866.4456.278.2158.198.4202.4456.6132.7427l.9712 1.5196h-.9293l-.7389-1.1616c-.2158-.3352-.3935-.5916-.5332-.7693-.1396-.1778-.2647-.3022-.3751-.3733-.1105-.0711-.2228-.1206-.337-.1485-.0838-.0178-.221-.0266-.4114-.0266h-.857v2.4794zm.7389-3.1193h1.5881c.3377 0 .6018-.0349.7922-.1048.1905-.0698.3352-.1815.4342-.3351.099-.1536.1485-.3206.1485-.5009 0-.264-.0958-.4811-.2875-.6512-.1917-.1701-.4945-.2552-.9084-.2552h-1.7671zM60.6518.099h.7389v3.226c0 .5611-.0635 1.0067-.1904 1.3368-.127.3301-.3561.5986-.6875.8055-.3313.207-.7662.3104-1.3044.3104-.523 0-.9509-.09-1.2835-.2704-.3326-.1803-.57-.4411-.7122-.7826-.1422-.3415-.2133-.8081-.2133-1.3997V.099h.7389v3.222c0 .485.045.8424.1352 1.0722.09.2298.245.4069.4646.5313.2196.1244.4881.1866.8055.1866.5434 0 .9306-.123 1.1616-.3694.2311-.2463.3466-.7198.3466-1.4206zm2.7477 5.5834V.099h2.1062c.3707 0 .6538.0178.8493.0533.2742.0457.504.1326.6894.2609.1853.1282.3345.3078.4475.5389.113.231.1695.485.1695.7617 0 .4748-.1511.8766-.4533 1.2054-.3021.3288-.848.4932-1.6377.4932h-1.432v2.27zm.739-2.9288h1.4434c.4773 0 .8163-.0889 1.0169-.2666.2006-.1777.3008-.4278.3008-.7503 0-.2336-.059-.4335-.177-.5998S66.449.8607 66.256.8074c-.1244-.033-.3542-.0495-.6894-.0495h-1.4282zm5.2436 2.9288V.099h2.1062c.3707 0 .6538.0178.8493.0533.2742.0457.504.1326.6894.2609.1853.1282.3345.3078.4475.5389.113.231.1695.485.1695.7617 0 .4748-.1511.8766-.4533 1.2054-.3021.3288-.848.4932-1.6377.4932h-1.432v2.27zm.739-2.9288h1.4434c.4773 0 .8163-.0889 1.0169-.2666.2005-.1777.3008-.4278.3008-.7503 0-.2336-.059-.4335-.177-.5998s-.2737-.2762-.4666-.3295c-.1244-.033-.3542-.0495-.6894-.0495H70.121zm5.019.2095c0-.9268.2488-1.6523.7464-2.1766C76.3842.2622 77.0265 0 77.8137 0c.5154 0 .98.1231 1.394.3694.4138.2463.7293.5897.9464 1.0303.217.4405.3256.94.3256 1.4986 0 .5662-.1142 1.0728-.3428 1.5197-.2285.4468-.5522.7852-.9712 1.015-.4189.2297-.8709.3446-1.3558.3446-.5256 0-.9953-.127-1.4092-.3808-.4139-.254-.7274-.6005-.9407-1.0398-.2133-.4392-.32-.9039-.32-1.394zm.7617.0112c0 .6729.1809 1.203.5427 1.5901.3618.3872.8157.5808 1.3616.5808.556 0 1.0137-.1955 1.373-.5865.3592-.391.5389-.9458.5389-1.6644 0-.4544-.0768-.8512-.2304-1.1901-.1536-.339-.3784-.6018-.6742-.7884s-.6277-.28-.9959-.28c-.523 0-.973.1797-1.3501.539-.377.3593-.5656.9591-.5656 1.7995z"/><path d="M83.0162 3.507h40.98M0 3.507h41.6737" fill="none" stroke="#0d1b3c" stroke-width=".3825"/></svg>