<svg xmlns="http://www.w3.org/2000/svg" width="477.4" height="209.95" viewBox="0 0 477.4 209.95"><path d="M61,400H58.7V339.18C58.7,325.5,69.16,316,82.22,316s23.53,9.53,23.53,23.21v2.39h-2.39v-2.39c0-12.64-10.47-20.83-21.14-20.83S61,326.54,61,339.18Zm4.87-42.29H90.41V360H65.85v40H63.36V339.18c0-11.09,9.22-18.55,18.86-18.55A18.56,18.56,0,0,1,101,339.18v2.39H98.59v-2.39c0-9.53-6.83-16.17-16.37-16.17s-16.37,6.64-16.37,16.17ZM70.41,353h20v2.48H68.13V339.18c0-8.6,6.63-13.78,14.09-13.78s14,5.18,14,13.78v2.39H93.93v-2.39c0-7.25-4.46-11.5-11.71-11.5s-11.81,4.25-11.81,11.5Zm0,47H68.13V362.4H90.41v2.38h-20Z" transform="translate(-58.7 -315.97)" fill="#1d1d1b"/><path d="M156.73,378.36c0,13.57-10.47,23.21-23.53,23.21s-23.52-9.64-23.52-23.21V339.18c0-13.68,10.46-23.21,23.52-23.21s23.53,9.53,23.53,23.21Zm-2.39-39.18c0-12.64-10.36-20.83-21.14-20.83S112,326.54,112,339.18v39.18c0,12.54,10.46,20.72,21.24,20.72s21.14-8.18,21.14-20.72ZM152,378.36c0,11-9.12,18.44-18.76,18.44s-18.76-7.46-18.76-18.44V339.18a18.76,18.76,0,0,1,37.52,0Zm-2.38-39.18c0-9.53-6.84-16.17-16.38-16.17s-16.37,6.64-16.37,16.17v39.18c0,9.43,6.84,16.17,16.37,16.17s16.38-6.74,16.38-16.17Zm-2.28,39.18c0,8.5-6.64,13.68-14.1,13.68s-14.09-5.18-14.09-13.68V339.18c0-8.6,6.63-13.78,14.09-13.78s14.1,5.18,14.1,13.78Zm-2.39-39.18c0-7.25-4.45-11.5-11.71-11.5s-11.81,4.25-11.81,11.5v39.18c0,7.15,4.56,11.4,11.81,11.4s11.71-4.25,11.71-11.4Z" transform="translate(-58.7 -315.97)" fill="#1d1d1b"/><path d="M211.24,377.11V400h-2.39V377.11c0-7.77-3.21-14.09-10.15-18.34,7-3.94,9.63-9.95,9.63-18.45,0-12.95-8.08-20.52-21.14-20.52H166.26V400H164v-82.6h23.21c14.3,0,23.42,8.08,23.42,22.9,0,9.64-3.31,15-8.39,18.45C208.23,362.92,211.24,369.55,211.24,377.11ZM171,359.91V400h-2.49V322.19h18.65c11.82,0,19.07,7.15,19.07,18.13,0,9.64-4.87,16.38-12.44,18.45,8.3,2.28,12.75,9.85,12.75,18.34V400h-2.49V377.11c0-9.63-6.52-17.2-16.89-17.2Zm16.16-2.28c11,0,16.89-7.57,16.89-17.31,0-9.53-6.11-15.85-16.89-15.85H171v33.16ZM173.3,326.85h13.89c9.54,0,14.62,5.18,14.62,13.47,0,9.85-6,15-14.62,15H173.3Zm28.51,50.26V400h-2.29V377.11c0-7.46-4.66-12.54-12.33-12.54h-11.5V400H173.3V362.4h13.89C196.42,362.4,201.81,367.89,201.81,377.11ZM187.19,353c7.15,0,12.44-3.94,12.44-12.65,0-7.36-4.56-11.09-12.44-11.09h-11.5V353Z" transform="translate(-58.7 -315.97)" fill="#1d1d1b"/><path d="M220.76,400h-2.28V339.18C218.48,325.5,229,316,242,316s23.52,9.53,23.52,23.21V400h-2.38V339.18c0-12.64-10.47-20.83-21.14-20.83s-21.25,8.19-21.25,20.83Zm4.88,0h-2.49V339.18c0-11.09,9.22-18.55,18.86-18.55a18.56,18.56,0,0,1,18.76,18.55V400h-2.39V339.18c0-9.53-6.84-16.17-16.37-16.17s-16.37,6.64-16.37,16.17Zm4.56,0h-2.29V339.18c0-8.6,6.64-13.78,14.1-13.78s14,5.18,14,13.78V400h-2.28V339.18c0-7.25-4.46-11.5-11.71-11.5s-11.81,4.25-11.81,11.5Z" transform="translate(-58.7 -315.97)" fill="#1d1d1b"/><path d="M317.35,317.42h2.38v60.94c0,13.57-10.47,23.21-23.52,23.21s-23.53-9.64-23.53-23.21V317.42H275v60.94c0,12.54,10.47,20.72,21.25,20.72s21.14-8.18,21.14-20.72Zm-4.77,0H315v60.94c0,11-9.12,18.44-18.75,18.44s-18.87-7.46-18.87-18.44V317.42h2.49v60.94c0,9.43,6.84,16.17,16.38,16.17s16.37-6.74,16.37-16.17Zm-4.66,0h2.28v60.94c0,8.5-6.64,13.68-14,13.68s-14.1-5.18-14.1-13.68V317.42h2.28v60.94c0,7.15,4.56,11.4,11.82,11.4s11.71-4.25,11.71-11.4Z" transform="translate(-58.7 -315.97)" fill="#1d1d1b"/><path d="M374.13,376.18c0,13.68-9.94,23.84-23.11,23.84H327.29v-82.6H351c13.17,0,23.11,10.15,23.11,23.84Zm-44.56,21.45H350.4c12.23,0,21.45-9.22,21.45-20.83V340.63c0-11.5-9.22-20.83-21.45-20.83H329.57Zm40-20.83A18.57,18.57,0,0,1,351,395.25H331.85V322.19H351a18.57,18.57,0,0,1,18.55,18.44ZM334.34,393H350.4c9.64,0,16.79-7.05,16.79-16.79V341.26c0-9.75-7.15-16.79-16.79-16.79H334.34Zm30.47-16.79c0,8.71-6,14.41-13.79,14.41h-14.4V326.85H351c7.78,0,13.79,5.8,13.79,14.41ZM339,388.31h11.4c7.26,0,12-4.25,12-11.51V340.63c0-7.25-4.76-11.4-12-11.4H339Z" transform="translate(-58.7 -315.97)" fill="#1d1d1b"/><path d="M428.23,376.18c0,13.68-10,23.84-23.11,23.84H381.38v-82.6h23.74c13.16,0,23.11,10.15,23.11,23.84Zm-44.57,21.45h20.83c12.23,0,21.46-9.22,21.46-20.83V340.63c0-11.5-9.23-20.83-21.46-20.83H383.66Zm40-20.83a18.57,18.57,0,0,1-18.55,18.45H385.94V322.19h19.18a18.57,18.57,0,0,1,18.55,18.44ZM388.43,393h16.06c9.64,0,16.79-7.05,16.79-16.79V341.26c0-9.75-7.15-16.79-16.79-16.79H388.43Zm30.47-16.79c0,8.71-6,14.41-13.78,14.41H390.71V326.85h14.41c7.77,0,13.78,5.8,13.78,14.41Zm-25.81,12.13h11.4c7.26,0,12-4.25,12-11.51V340.63c0-7.25-4.77-11.4-12-11.4h-11.4Z" transform="translate(-58.7 -315.97)" fill="#1d1d1b"/><path d="M480.14,376.28h2.28v2.08c0,13.57-10.36,23.21-23.42,23.21s-23.53-9.64-23.53-23.21V339.18C435.47,325.5,445.94,316,459,316s23.42,9.53,23.42,23.21v2.39h-2.28v-2.39c0-12.64-10.46-20.83-21.14-20.83s-21.24,8.19-21.24,20.83v39.18c0,12.54,10.46,20.72,21.24,20.72s21.14-8.18,21.14-20.72Zm-37.51-18.55h24.56V360H442.63v18.35c0,9.43,6.84,16.17,16.37,16.17s16.38-6.74,16.38-16.17v-2.08h2.38v2.08c0,11-9.12,18.44-18.76,18.44s-18.86-7.46-18.86-18.44V339.18c0-11.09,9.22-18.55,18.86-18.55a18.56,18.56,0,0,1,18.76,18.55v2.39h-2.38v-2.39c0-9.53-6.85-16.17-16.38-16.17s-16.37,6.64-16.37,16.17Zm4.56-4.76h20v2.48H444.91V339.18c0-8.6,6.63-13.78,14.09-13.78s14,5.18,14,13.78v2.39h-2.28v-2.39c0-7.25-4.56-11.5-11.71-11.5s-11.81,4.25-11.81,11.5Zm23.52,23.31H473v2.08c0,8.5-6.63,13.68-14,13.68s-14.09-5.18-14.09-13.68v-16h22.28v2.38h-20v13.58c0,7.15,4.56,11.4,11.81,11.4s11.71-4.25,11.71-11.4Z" transform="translate(-58.7 -315.97)" fill="#1d1d1b"/><path d="M491.33,400h-2.28V339.18c0-13.68,10.47-23.21,23.52-23.21s23.53,9.53,23.53,23.21V400h-2.38V339.18c0-12.64-10.47-20.83-21.15-20.83s-21.24,8.19-21.24,20.83Zm4.87,0h-2.49V339.18c0-11.09,9.23-18.55,18.86-18.55a18.56,18.56,0,0,1,18.76,18.55V400H529V339.18c0-9.53-6.84-16.17-16.38-16.17s-16.37,6.64-16.37,16.17Zm4.56,0h-2.28V339.18c0-8.6,6.63-13.78,14.09-13.78s14,5.18,14,13.78V400h-2.27V339.18c0-7.25-4.46-11.5-11.72-11.5s-11.81,4.25-11.81,11.5Z" transform="translate(-58.7 -315.97)" fill="#1d1d1b"/><path d="M185.18,460.94c0-10.46-6-18.24-18.14-18.24-6.11,0-10.78,2.08-14.61,6.64-3.84-4.56-8.4-6.64-14.61-6.64-12.23,0-18.24,7.78-18.24,18.24v63.43H117.3V460.94c0-12,6.53-20.62,20.52-20.62,6.42,0,11.19,2.18,14.5,5.49,3.11-3.31,8.3-5.49,14.72-5.49,13.89,0,20.42,8.6,20.42,20.62v63.43h-2.28Zm-33.89,0c0-8.29-5-13.57-13.47-13.57s-13.37,5.28-13.37,13.57v63.43H122V460.94c0-9.32,5.6-16,15.86-16,7.35,0,13.47,3.94,14.5,10.26,1.87-6.94,7-10.26,14.72-10.26,10.26,0,15.75,6.64,15.75,16v63.43h-2.38V460.94c0-8.29-4.87-13.57-13.37-13.57s-13.47,5.28-13.47,13.57v63.43h-2.28Zm-4.67,0c0-6-3.83-8.91-8.8-8.91s-8.81,2.9-8.81,8.91v63.43h-2.28V460.94c0-6.94,4.56-11.19,11.09-11.19S148.9,454,148.9,460.94v63.43h-2.28Zm29.13,0c0-6-3.73-8.91-8.71-8.91s-8.91,2.9-8.91,8.91v63.43h-2.28V460.94c0-6.94,4.66-11.19,11.19-11.19s11,4.25,11,11.19v63.43h-2.28Z" transform="translate(-58.7 -315.97)" fill="#1d1d1b"/><path d="M241.75,524.37h-2.38v-61c0-10.88-10.16-20.94-21.24-20.94-10.57,0-21.14,9.85-21.14,20.94v61H194.7V463.53A23,23,0,0,1,218,440.32c13,0,23.73,10.36,23.73,23.21Zm-4.76,0h-2.28V484.26h-33v40.11h-2.38V463.85c0-10.89,8.6-19.39,18.65-19.39a19.23,19.23,0,0,1,19,18.87ZM234.71,482V463.85A16.77,16.77,0,0,0,218,447.06a16.43,16.43,0,0,0-16.27,16.27V482Zm-2.49-2.38H204.13V463.85c0-8.19,5.91-14.51,13.89-14.51,8.29,0,14.2,6.32,14.2,14.51Zm0,44.77h-2.28V489H206.42v35.34h-2.29V486.75h28.09Zm-2.28-47.16V463.33c0-7.26-4.87-11.61-11.92-11.61s-11.6,4.77-11.6,11.61v13.88Z" transform="translate(-58.7 -315.97)" fill="#1d1d1b"/><path d="M251.18,524.37H248.9V463.53c0-13.68,10.47-23.21,23.53-23.21S296,449.85,296,463.53v60.84h-2.38V463.53c0-12.64-10.47-20.83-21.14-20.83s-21.25,8.19-21.25,20.83Zm4.87,0h-2.49V463.53c0-11.08,9.23-18.55,18.87-18.55a18.57,18.57,0,0,1,18.75,18.55v60.84H288.8V463.53c0-9.53-6.84-16.16-16.37-16.16s-16.38,6.63-16.38,16.16Zm4.56,0h-2.28V463.53c0-8.6,6.63-13.78,14.1-13.78s14,5.18,14,13.78v60.84h-2.28V463.53c0-7.25-4.46-11.5-11.71-11.5s-11.82,4.25-11.82,11.5Z" transform="translate(-58.7 -315.97)" fill="#1d1d1b"/><path d="M326.52,525.92a24.16,24.16,0,0,1-24-23.52h2.29a21.76,21.76,0,0,0,43.52-.73c0-8.08-3-14-8.6-18.34s-11.81-4.35-17.93-6.43c-6.42-2.28-9.74-6.53-9.74-13,0-7.78,5.6-14.41,14.82-14.41,8.08,0,13.16,6.32,13.68,14.61H338c0-7.25-4.25-11.92-11.19-11.92-8.08,0-12.54,4.46-12.54,11.72,0,5.8,2.49,9.12,8.39,11,6.12,2,12.65,2.28,18.45,6.74,6.43,4.87,9.43,10.88,9.43,20.1A24.11,24.11,0,0,1,326.52,525.92Zm20.93-61.87c0-11.71-9-21.45-20.62-21.45-12.23,0-21.45,8.91-21.45,21.25,0,10,5,16.06,13.16,19.17,5.59,2.07,12,1.55,17.31,5.49,4,2.9,5.8,7.25,5.8,13.16a14.76,14.76,0,0,1-15.13,15.13c-7.26,0-14.61-6.53-14.72-14.4h2.49c0,7.25,4.56,11.92,12.23,11.92a12.4,12.4,0,0,0,12.75-12.65c0-5.39-1.35-8.81-5.08-11.5-4.87-3.42-12.54-3.42-16.69-5.18-9-3.63-14.4-9.33-14.4-21.14,0-13.89,10.36-23.53,23.73-23.53,12.64,0,23.11,10.05,23.11,23.73Zm-20.73-16.68c-9.84,0-17,6.63-17,16.48,0,7.56,4.15,12.43,10.88,14.82,6.22,2.17,12.33,2.07,17.83,6.21,5.18,3.94,7.87,9.33,7.87,16.79a20.15,20.15,0,0,1-19.79,19.9c-10.06,0-18.86-8.71-19.38-19.17h2.38a16.77,16.77,0,0,0,17,16.79c9.33,0,17.2-8.09,17.2-17.52,0-6.53-2.28-11.4-6.74-14.92-5.18-4-11.5-3.42-17.51-5.91-7.25-2.8-12-8.29-12-17,0-11.2,8.29-19.18,19.38-19.18,10.26,0,18.14,9,18.45,19.38H343C343,454.52,335.85,447.37,326.72,447.37Z" transform="translate(-58.7 -315.97)" fill="#1d1d1b"/><path d="M360,524.37H357.6v-82.6H360Zm4.76,0h-2.48v-82.6h2.48Zm4.56,0H367v-82.6h2.28Z" transform="translate(-58.7 -315.97)" fill="#1d1d1b"/><path d="M423.62,502.71c0,13.57-10.47,23.21-23.53,23.21s-23.52-9.64-23.52-23.21V463.53c0-13.68,10.46-23.21,23.52-23.21s23.53,9.53,23.53,23.21Zm-2.39-39.18c0-12.64-10.36-20.83-21.14-20.83s-21.24,8.19-21.24,20.83v39.18c0,12.54,10.46,20.73,21.24,20.73s21.14-8.19,21.14-20.73Zm-2.38,39.18c0,11-9.12,18.45-18.76,18.45s-18.76-7.47-18.76-18.45V463.53a18.76,18.76,0,0,1,37.52,0Zm-2.38-39.18c0-9.53-6.84-16.16-16.38-16.16s-16.37,6.63-16.37,16.16v39.18c0,9.43,6.84,16.17,16.37,16.17s16.38-6.74,16.38-16.17Zm-2.28,39.18c0,8.5-6.64,13.68-14.1,13.68S386,511.21,386,502.71V463.53c0-8.6,6.63-13.78,14.09-13.78s14.1,5.18,14.1,13.78Zm-2.39-39.18c0-7.25-4.45-11.5-11.71-11.5s-11.81,4.25-11.81,11.5v39.18c0,7.15,4.56,11.4,11.81,11.4s11.71-4.25,11.71-11.4Z" transform="translate(-58.7 -315.97)" fill="#1d1d1b"/><path d="M432.73,524.37h-2.28V463.53c0-13.68,10.47-23.21,23.53-23.21s23.52,9.53,23.52,23.21v60.84h-2.38V463.53c0-12.64-10.47-20.83-21.14-20.83s-21.25,8.19-21.25,20.83Zm4.87,0h-2.48V463.53c0-11.08,9.22-18.55,18.86-18.55a18.57,18.57,0,0,1,18.75,18.55v60.84h-2.38V463.53c0-9.53-6.84-16.16-16.37-16.16S437.6,454,437.6,463.53Zm4.56,0h-2.28V463.53c0-8.6,6.63-13.78,14.1-13.78s14,5.18,14,13.78v60.84h-2.28V463.53c0-7.25-4.46-11.5-11.71-11.5s-11.82,4.25-11.82,11.5Z" transform="translate(-58.7 -315.97)" fill="#1d1d1b"/></svg>